<svg width="109" height="24" viewBox="0 0 109 24" fill="none" xmlns="http://www.w3.org/2000/svg"><path d="M8.30469 13.6875C8.30469 13.2891 8.25781 12.9375 8.16406 12.6328C8.07031 12.3203 7.90625 12.0391 7.67188 11.7891C7.4375 11.5391 7.10938 11.3008 6.6875 11.0742C6.26562 10.8477 5.73047 10.6172 5.08203 10.3828C4.37891 10.1328 3.74219 9.85547 3.17188 9.55078C2.60156 9.23828 2.11328 8.88281 1.70703 8.48438C1.30859 8.08594 1 7.62891 0.78125 7.11328C0.5625 6.59766 0.453125 6.00781 0.453125 5.34375C0.453125 4.67969 0.566406 4.06641 0.792969 3.50391C1.02734 2.94141 1.35547 2.45312 1.77734 2.03906C2.20703 1.61719 2.72266 1.28906 3.32422 1.05469C3.92578 0.820312 4.59766 0.703125 5.33984 0.703125C6.44922 0.703125 7.38281 0.949219 8.14062 1.44141C8.90625 1.92578 9.48438 2.5625 9.875 3.35156C10.2656 4.13281 10.4609 4.96875 10.4609 5.85938H8.30469C8.30469 5.21875 8.19922 4.65234 7.98828 4.16016C7.78516 3.66016 7.46484 3.26953 7.02734 2.98828C6.59766 2.69922 6.03516 2.55469 5.33984 2.55469C4.71484 2.55469 4.19922 2.67578 3.79297 2.91797C3.39453 3.16016 3.09766 3.48828 2.90234 3.90234C2.71484 4.31641 2.62109 4.78906 2.62109 5.32031C2.62109 5.67969 2.68359 6.00781 2.80859 6.30469C2.93359 6.59375 3.125 6.86328 3.38281 7.11328C3.64844 7.36328 3.97656 7.59375 4.36719 7.80469C4.76562 8.01562 5.23438 8.21875 5.77344 8.41406C6.60938 8.6875 7.32422 8.99219 7.91797 9.32812C8.51172 9.66406 8.99609 10.043 9.37109 10.4648C9.74609 10.8789 10.0195 11.3516 10.1914 11.8828C10.3711 12.4062 10.4609 13 10.4609 13.6641C10.4609 14.3594 10.3438 14.9883 10.1094 15.5508C9.88281 16.1133 9.55078 16.5938 9.11328 16.9922C8.67578 17.3906 8.14844 17.6992 7.53125 17.918C6.91406 18.1289 6.21875 18.2344 5.44531 18.2344C4.77344 18.2344 4.11328 18.125 3.46484 17.9062C2.82422 17.6875 2.24219 17.3594 1.71875 16.9219C1.19531 16.4844 0.777344 15.9453 0.464844 15.3047C0.152344 14.6562 -0.00390625 13.9062 -0.00390625 13.0547H2.15234C2.15234 13.6406 2.23828 14.1445 2.41016 14.5664C2.58203 14.9805 2.82031 15.3242 3.125 15.5977C3.42969 15.8711 3.77734 16.0742 4.16797 16.207C4.56641 16.332 4.99219 16.3945 5.44531 16.3945C6.07031 16.3945 6.59375 16.2852 7.01562 16.0664C7.44531 15.8477 7.76562 15.5352 7.97656 15.1289C8.19531 14.7227 8.30469 14.2422 8.30469 13.6875ZM21.3125 0.9375H23.4688V12.9492C23.4688 14.2305 23.2227 15.2578 22.7305 16.0312C22.2383 16.8047 21.5898 17.3672 20.7852 17.7188C19.9883 18.0625 19.1289 18.2344 18.207 18.2344C17.2227 18.2344 16.3359 18.0625 15.5469 17.7188C14.7578 17.3672 14.1289 16.8047 13.6602 16.0312C13.1992 15.2578 12.9688 14.2305 12.9688 12.9492V0.9375H15.1133V12.9492C15.1133 13.8398 15.2383 14.5352 15.4883 15.0352C15.7461 15.5352 16.1055 15.8867 16.5664 16.0898C17.0352 16.293 17.582 16.3945 18.207 16.3945C18.8398 16.3945 19.3867 16.293 19.8477 16.0898C20.3164 15.8867 20.6758 15.5352 20.9258 15.0352C21.1836 14.5352 21.3125 13.8398 21.3125 12.9492V0.9375ZM32.1992 11.3086H28.4727V9.46875H32.1992C32.9023 9.46875 33.4688 9.32812 33.8984 9.04688C34.3359 8.76562 34.6523 8.375 34.8477 7.875C35.0508 7.375 35.1523 6.80469 35.1523 6.16406C35.1523 5.57812 35.0508 5.02734 34.8477 4.51172C34.6523 3.99609 34.3359 3.58203 33.8984 3.26953C33.4688 2.94922 32.9023 2.78906 32.1992 2.78906H28.918V18H26.7617V0.9375H32.1992C33.3008 0.9375 34.2305 1.16016 34.9883 1.60547C35.7461 2.05078 36.3203 2.66797 36.7109 3.45703C37.1094 4.23828 37.3086 5.13281 37.3086 6.14062C37.3086 7.23438 37.1094 8.16797 36.7109 8.94141C36.3203 9.71484 35.7461 10.3047 34.9883 10.7109C34.2305 11.1094 33.3008 11.3086 32.1992 11.3086ZM49.25 16.1602V18H41.8438V16.1602H49.25ZM42.2305 0.9375V18H40.0742V0.9375H42.2305ZM48.2539 8.27344V10.1133H41.8438V8.27344H48.2539ZM49.1328 0.9375V2.78906H41.8438V0.9375H49.1328ZM52.0156 0.9375H56.7852C57.8945 0.9375 58.8242 1.13281 59.5742 1.52344C60.332 1.91406 60.9023 2.49219 61.2852 3.25781C61.6758 4.01563 61.8711 4.94922 61.8711 6.05859C61.8711 6.83984 61.7422 7.55469 61.4844 8.20312C61.2266 8.84375 60.8516 9.39062 60.3594 9.84375C59.8672 10.2891 59.2695 10.6211 58.5664 10.8398L57.9805 11.0859H53.7266L53.7031 9.24609H56.7617C57.418 9.24609 57.9648 9.10547 58.4023 8.82422C58.8398 8.53516 59.168 8.14844 59.3867 7.66406C59.6055 7.17969 59.7148 6.64453 59.7148 6.05859C59.7148 5.40234 59.6172 4.82812 59.4219 4.33594C59.2266 3.84375 58.9141 3.46484 58.4844 3.19922C58.0625 2.92578 57.4961 2.78906 56.7852 2.78906H54.1719V18H52.0156V0.9375ZM60.207 18L56.8086 10.2656L59.0469 10.2539L62.5156 17.8594V18H60.207ZM75.4414 9.50391V15.8672C75.2539 16.1172 74.9688 16.4297 74.5859 16.8047C74.2109 17.1797 73.6836 17.5117 73.0039 17.8008C72.3242 18.0898 71.4336 18.2344 70.332 18.2344C69.4492 18.2344 68.6406 18.0859 67.9062 17.7891C67.1797 17.4922 66.5508 17.0469 66.0195 16.4531C65.4961 15.8516 65.0898 15.1055 64.8008 14.2148C64.5117 13.3164 64.3672 12.2656 64.3672 11.0625V7.86328C64.3672 6.66797 64.4883 5.62109 64.7305 4.72266C64.9727 3.82422 65.332 3.07813 65.8086 2.48438C66.293 1.89062 66.8906 1.44531 67.6016 1.14844C68.3203 0.851563 69.1562 0.703125 70.1094 0.703125C71.2109 0.703125 72.1484 0.910156 72.9219 1.32422C73.6953 1.73828 74.293 2.33594 74.7148 3.11719C75.1445 3.89844 75.3867 4.83594 75.4414 5.92969H73.2852C73.2305 5.22656 73.082 4.625 72.8398 4.125C72.5977 3.61719 72.2539 3.23047 71.8086 2.96484C71.3633 2.69141 70.7969 2.55469 70.1094 2.55469C69.4531 2.55469 68.8984 2.66406 68.4453 2.88281C67.9922 3.10156 67.6211 3.42969 67.332 3.86719C67.0508 4.30469 66.8438 4.85547 66.7109 5.51953C66.5859 6.18359 66.5234 6.95703 66.5234 7.83984V11.0625C66.5234 11.9688 66.6133 12.7578 66.793 13.4297C66.9727 14.1016 67.2266 14.6562 67.5547 15.0938C67.8906 15.5312 68.293 15.8594 68.7617 16.0781C69.2305 16.2891 69.7578 16.3945 70.3438 16.3945C71.0078 16.3945 71.5312 16.3242 71.9141 16.1836C72.2969 16.043 72.5898 15.8828 72.793 15.7031C73.0039 15.5234 73.1719 15.3789 73.2969 15.2695V11.332H70.168V9.50391H75.4414ZM79.8945 0.9375L83.375 9.50391L86.8672 0.9375H89.3047L84.4531 11.625V18H82.2969V11.625L77.4453 0.9375H79.8945ZM92.2227 0.9375H94.3086L98.7734 14.8477L103.227 0.9375H105.312L99.582 18H97.9414L92.2227 0.9375ZM91.543 0.9375H93.3711L93.6875 11.3438V18H91.543V0.9375ZM104.152 0.9375H105.98V18H103.836V11.3438L104.152 0.9375Z" fill="white"/></svg>